<svg xmlns="http://www.w3.org/2000/svg" viewBox="0 0 382.0 156.0" width="382.0" height="156.0"><defs><linearGradient id="g" x1="0" y1="0" x2="1" y2="1"><stop offset="0" stop-color="#6366F1"/><stop offset="1" stop-color="#8B3FF3"/></linearGradient></defs><g transform="translate(28,28)"><rect x="0.00" y="0.00" width="100" height="100" rx="26.00" fill="url(#g)"/><rect x="22.00" y="30.00" width="51.52" height="8.50" rx="4.25" fill="#ffffff" opacity="0.95"/><rect x="22.00" y="43.50" width="51.52" height="8.50" rx="4.25" fill="#ffffff" opacity="0.95"/><rect x="22.00" y="57.00" width="30.80" height="8.50" rx="4.25" fill="#ffffff" opacity="0.95"/><path d="M 69.80 48.25 C 74.30 56.75 74.30 56.75 82.80 61.25 C 74.30 65.75 74.30 65.75 69.80 74.25 C 65.30 65.75 65.30 65.75 56.80 61.25 C 65.30 56.75 65.30 56.75 69.80 48.25 Z" fill="#ffffff"/><g transform="translate(136,0)" fill="#0F172A"><path d="M298 560Q352 560 404.5 536.5Q457 513 488 474V740H603V0H488V83Q460 43 410.5 17.0Q361 -9 297 -9Q225 -9 165.5 27.5Q106 64 71.5 129.5Q37 195 37 278Q37 361 71.5 425.0Q106 489 165.5 524.5Q225 560 298 560ZM321 461Q277 461 239.0 439.5Q201 418 177.5 376.5Q154 335 154 278Q154 221 177.5 178.0Q201 135 239.5 112.5Q278 90 321 90Q365 90 403.0 112.0Q441 134 464.5 176.5Q488 219 488 276Q488 333 464.5 375.0Q441 417 403.0 439.0Q365 461 321 461Z" transform="translate(0.000,70.670) scale(0.07800,-0.07800)"/><path d="M38 276Q38 360 75.0 425.0Q112 490 176.0 525.0Q240 560 319 560Q398 560 462.0 525.0Q526 490 563.0 425.0Q600 360 600 276Q600 192 562.0 127.0Q524 62 458.5 26.5Q393 -9 314 -9Q236 -9 173.0 26.5Q110 62 74.0 126.5Q38 191 38 276ZM483 276Q483 336 460.0 377.5Q437 419 399.0 440.0Q361 461 317 461Q273 461 235.5 440.0Q198 419 176.0 377.5Q154 336 154 276Q154 187 199.5 138.5Q245 90 314 90Q358 90 396.5 111.0Q435 132 459.0 174.0Q483 216 483 276Z" transform="translate(51.384,70.670) scale(0.07800,-0.07800)"/><path d="M311 279 489 0H360L241 187L129 0H10L188 271L10 551H139L258 364L370 551H489Z" transform="translate(99.648,70.670) scale(0.07800,-0.07800)"/><path d="M297 560Q362 560 410.5 534.5Q459 509 488 471V551H603V0H488V82Q459 43 409.0 17.0Q359 -9 295 -9Q224 -9 165.0 27.5Q106 64 71.5 129.5Q37 195 37 278Q37 361 71.5 425.0Q106 489 165.5 524.5Q225 560 297 560ZM321 461Q277 461 239.0 439.5Q201 418 177.5 376.5Q154 335 154 278Q154 221 177.5 178.0Q201 135 239.5 112.5Q278 90 321 90Q365 90 403.0 112.0Q441 134 464.5 176.5Q488 219 488 276Q488 333 464.5 375.0Q441 417 403.0 439.0Q365 461 321 461Z" transform="translate(137.070,70.670) scale(0.07800,-0.07800)"/></g></g></svg>